<svg xmlns="http://www.w3.org/2000/svg" version="1.1" xmlns:xlink="http://www.w3.org/1999/xlink" viewBox="0 0 200 200"><rect width="200" height="200" fill="url('#gradient')"></rect><defs><linearGradient id="gradient" gradientTransform="rotate(131 0.5 0.5)"><stop offset="0%" stop-color="#15374d"></stop><stop offset="100%" stop-color="#7dabaa"></stop></linearGradient></defs><g><g fill="#2c1f37" transform="matrix(2.986728890185212,0,0,2.986728890185212,-3.207082179661157,116.17317403237291)" stroke="#bcd3e3" stroke-width="1.05"><path d="M1.07-14.22L5.58-14.22L8.75-4.33L11.91-14.22L16.43-14.22L16.43 0L12.99 0L12.99-3.32L13.32-10.12L9.88 0L7.62 0L4.17-10.13L4.50-3.32L4.50 0L1.07 0L1.07-14.22ZM21.92-10.57L21.92 0L18.62 0L18.62-10.57L21.92-10.57ZM18.43-13.29L18.43-13.29Q18.43-13.99 18.94-14.44Q19.44-14.89 20.25-14.89Q21.06-14.89 21.57-14.44Q22.08-13.99 22.08-13.29Q22.08-12.59 21.57-12.14Q21.06-11.69 20.25-11.69Q19.44-11.69 18.94-12.14Q18.43-12.59 18.43-13.29ZM32.54-8.79L27.83-2.54L32.65-2.54L32.65 0L23.67 0L23.67-1.84L28.36-8.03L23.88-8.03L23.88-10.57L32.54-10.57L32.54-8.79ZM46.44-7.47L46.44-6.82Q46.44-4.74 45.66-3.13Q44.89-1.53 43.47-0.67Q42.05 0.20 40.23 0.20Q38.42 0.20 37.01-0.64Q35.61-1.47 34.82-3.03Q34.03-4.58 33.99-6.59L33.99-6.59L33.99-7.39Q33.99-9.48 34.76-11.08Q35.53-12.68 36.96-13.54Q38.39-14.41 40.21-14.41L40.21-14.41Q42.02-14.41 43.44-13.55Q44.85-12.70 45.64-11.11Q46.43-9.52 46.44-7.47L46.44-7.47ZM42.95-6.76L42.95-7.41Q42.95-9.53 42.24-10.63Q41.53-11.73 40.21-11.73L40.21-11.73Q37.64-11.73 37.49-7.86L37.49-7.86L37.48-6.82Q37.48-4.73 38.17-3.60Q38.87-2.48 40.23-2.48L40.23-2.48Q41.53-2.48 42.24-3.58Q42.94-4.69 42.95-6.76L42.95-6.76ZM57.86-5.36L57.86-5.21Q57.86-2.74 56.75-1.27Q55.64 0.20 53.76 0.20L53.76 0.20Q52.30 0.20 51.37-0.87L51.37-0.87L51.37 4.06L48.08 4.06L48.08-10.57L51.15-10.57L51.25-9.59Q52.20-10.76 53.74-10.76L53.74-10.76Q55.69-10.76 56.78-9.32Q57.86-7.88 57.86-5.36L57.86-5.36ZM54.57-5.06L54.57-5.41Q54.57-8.22 52.93-8.22L52.93-8.22Q51.76-8.22 51.37-7.38L51.37-7.38L51.37-3.22Q51.80-2.34 52.95-2.34L52.95-2.34Q54.52-2.34 54.57-5.06L54.57-5.06ZM64.84-2.97L64.84-2.97Q64.84-3.39 64.40-3.64Q63.96-3.90 62.73-4.17Q61.50-4.44 60.70-4.89Q59.90-5.33 59.48-5.97Q59.06-6.60 59.06-7.42L59.06-7.42Q59.06-8.88 60.26-9.82Q61.46-10.76 63.41-10.76L63.41-10.76Q65.50-10.76 66.77-9.81Q68.04-8.87 68.04-7.32L68.04-7.32L64.74-7.32Q64.74-8.59 63.40-8.59L63.40-8.59Q62.88-8.59 62.53-8.31Q62.18-8.02 62.18-7.59L62.18-7.59Q62.18-7.15 62.61-6.88Q63.04-6.60 63.98-6.43Q64.92-6.25 65.63-6.01L65.63-6.01Q68.02-5.19 68.02-3.07L68.02-3.07Q68.02-1.62 66.73-0.71Q65.45 0.20 63.41 0.20L63.41 0.20Q62.05 0.20 60.99-0.29Q59.92-0.78 59.33-1.62Q58.73-2.46 58.73-3.39L58.73-3.39L61.81-3.39Q61.83-2.66 62.29-2.32Q62.76-1.98 63.50-1.98L63.50-1.98Q64.17-1.98 64.51-2.26Q64.84-2.53 64.84-2.97Z"></path></g></g></svg>